<svg width="834" height="834" xmlns="http://www.w3.org/2000/svg" version="1.1"><g transform="translate(417,417)"><g display="none"><path d="M0,208.5A208.5,208.5 0 1,1 0,-208.5A208.5,208.5 0 1,1 0,208.5Z" style="stroke: rgb(255, 255, 255); fill: rgb(191, 105, 105); fill-rule: evenodd;"></path><text transform="rotate(90)" x="0" dx="6" dy=".35em" style="font-size: 11px; font-family: Arial, Helvetica;"></text><title>undefined: none</title></g><g><path d="M1.8055183772510034e-14,-294.8635277547903A294.8635277547903,294.8635277547903 0 0,1 239.3626746943946,-172.19178250760234L169.25497043935604,-121.75797707572475A208.5,208.5 0 0,0 1.2766942881111157e-14,-208.5Z" style="stroke: rgb(255, 255, 255); fill: rgb(191, 105, 105); fill-rule: evenodd;"></path><text transform="rotate(-62.86516853932584)" x="208.5" dx="6" dy=".35em" style="font-size: 11px; font-family: Arial, Helvetica;">BH</text><title>BH: none</title></g><g><path d="M2.211299372741431e-14,-361.1325933781109A361.1325933781109,361.1325933781109 0 0,1 124.84464281913506,-338.8665890278394L101.93522400896696,-276.6834113318717A294.8635277547903,294.8635277547903 0 0,0 1.8055183772510034e-14,-294.8635277547903Z" style="stroke: rgb(255, 255, 255); fill: rgb(191, 105, 105); fill-rule: evenodd;"></path><text transform="rotate(-79.8876404494382)" x="294.8635277547903" dx="6" dy=".35em" style="font-size: 11px; font-family: Arial, Helvetica;">M</text><title>M: none</title></g><g><path d="M2.5533885762222313e-14,-417A417,417 0 0,1 141.8536873117426,-392.1307580336722L122.84889683246338,-339.59519806240894A361.1325933781109,361.1325933781109 0 0,0 2.211299372741431e-14,-361.1325933781109Z" style="stroke: rgb(255, 255, 255); fill: rgb(191, 105, 105); fill-rule: evenodd;"></path><text transform="rotate(-80.05617977528091)" x="361.1325933781109" dx="6" dy=".35em" style="font-size: 11px; font-family: Arial, Helvetica;">S</text><title>S: 59</title></g><g><path d="M141.8536873117426,-392.1307580336722A417,417 0 0,1 144.1581762770206,-391.28943278918666L124.84464281913506,-338.8665890278394A361.1325933781109,361.1325933781109 0 0,0 122.84889683246338,-339.59519806240894Z" style="stroke: rgb(255, 255, 255); fill: rgb(191, 105, 105); fill-rule: evenodd;"></path><text transform="rotate(-69.9438202247191)" x="361.1325933781109" dx="6" dy=".35em" style="font-size: 11px; font-family: Arial, Helvetica;">2</text><title>2: 1</title></g><g><path d="M124.84464281913506,-338.8665890278394A361.1325933781109,361.1325933781109 0 0,1 290.65657324119036,-214.32570175246963L237.32009827560108,-174.99620268582697A294.8635277547903,294.8635277547903 0 0,0 101.93522400896696,-276.6834113318717Z" style="stroke: rgb(255, 255, 255); fill: rgb(191, 105, 105); fill-rule: evenodd;"></path><text transform="rotate(-53.08988764044944)" x="294.8635277547903" dx="6" dy=".35em" style="font-size: 11px; font-family: Arial, Helvetica;">F</text><title>F: none</title></g><g><path d="M144.1581762770206,-391.28943278918666A417,417 0 0,1 318.9142758492995,-268.6683544065377L276.1878645150114,-232.67362010902247A361.1325933781109,361.1325933781109 0 0,0 124.84464281913506,-338.8665890278394Z" style="stroke: rgb(255, 255, 255); fill: rgb(191, 105, 105); fill-rule: evenodd;"></path><text transform="rotate(-54.9438202247191)" x="361.1325933781109" dx="6" dy=".35em" style="font-size: 11px; font-family: Arial, Helvetica;">S</text><title>S: 88</title></g><g><path d="M318.9142758492995,-268.6683544065377A417,417 0 0,1 332.6861977820658,-251.41379000626077L288.11469876772316,-217.73072900714806A361.1325933781109,361.1325933781109 0 0,0 276.1878645150114,-232.67362010902247Z" style="stroke: rgb(255, 255, 255); fill: rgb(191, 105, 105); fill-rule: evenodd;"></path><text transform="rotate(-38.59550561797753)" x="361.1325933781109" dx="6" dy=".35em" style="font-size: 11px; font-family: Arial, Helvetica;">2</text><title>2: 9</title></g><g><path d="M332.6861977820658,-251.41379000626077A417,417 0 0,1 335.62130160507087,-247.48200320208755L290.65657324119036,-214.32570175246963A361.1325933781109,361.1325933781109 0 0,0 288.11469876772316,-217.73072900714806Z" style="stroke: rgb(255, 255, 255); fill: rgb(191, 105, 105); fill-rule: evenodd;"></path><text transform="rotate(-36.74157303370786)" x="361.1325933781109" dx="6" dy=".35em" style="font-size: 11px; font-family: Arial, Helvetica;">NSPP</text><title>NSPP: 2</title></g><g><path d="M290.65657324119036,-214.32570175246963A361.1325933781109,361.1325933781109 0 0,1 293.1582082345331,-210.89100252196192L239.3626746943946,-172.19178250760234A294.8635277547903,294.8635277547903 0 0,0 237.32009827560108,-174.99620268582697Z" style="stroke: rgb(255, 255, 255); fill: rgb(191, 105, 105); fill-rule: evenodd;"></path><text transform="rotate(-36.067415730337075)" x="294.8635277547903" dx="6" dy=".35em" style="font-size: 11px; font-family: Arial, Helvetica;">NSPP</text><title>NSPP: none</title></g><g><path d="M335.62130160507087,-247.48200320208755A417,417 0 0,1 338.5099408787121,-243.5159541514495L293.1582082345331,-210.89100252196192A361.1325933781109,361.1325933781109 0 0,0 290.65657324119036,-214.32570175246963Z" style="stroke: rgb(255, 255, 255); fill: rgb(191, 105, 105); fill-rule: evenodd;"></path><text transform="rotate(-36.067415730337075)" x="361.1325933781109" dx="6" dy=".35em" style="font-size: 11px; font-family: Arial, Helvetica;">S</text><title>S: 2</title></g><g><path d="M239.3626746943946,-172.19178250760234A294.8635277547903,294.8635277547903 0 0,1 -5.203893261945025,294.81760377378805L-3.6797082140923094,208.4675268416142A208.5,208.5 0 0,0 169.25497043935604,-121.75797707572475Z" style="stroke: rgb(255, 255, 255); fill: rgb(191, 145, 105); fill-rule: evenodd;"></path><text transform="rotate(27.64044943820225)" x="208.5" dx="6" dy=".35em" style="font-size: 11px; font-family: Arial, Helvetica;">EM</text><title>EM: none</title></g><g><path d="M293.1582082345331,-210.89100252196192A361.1325933781109,361.1325933781109 0 0,1 303.908448409931,195.08050898300505L248.14020904175888,159.28256859026416A294.8635277547903,294.8635277547903 0 0,0 239.3626746943946,-172.19178250760234Z" style="stroke: rgb(255, 255, 255); fill: rgb(191, 145, 105); fill-rule: evenodd;"></path><text transform="rotate(-1.516853932584261)" x="294.8635277547903" dx="6" dy=".35em" style="font-size: 11px; font-family: Arial, Helvetica;">F</text><title>F: none</title></g><g><path d="M338.5099408787121,-243.5159541514495A417,417 0 0,1 369.41040984036346,193.45528967070067L319.91879934417574,167.5371953513041A361.1325933781109,361.1325933781109 0 0,0 293.1582082345331,-210.89100252196192Z" style="stroke: rgb(255, 255, 255); fill: rgb(191, 145, 105); fill-rule: evenodd;"></path><text transform="rotate(-4.0449438202247165)" x="361.1325933781109" dx="6" dy=".35em" style="font-size: 11px; font-family: Arial, Helvetica;">S</text><title>S: 188</title></g><g><path d="M369.41040984036346,193.45528967070067A417,417 0 0,1 352.2424002714858,223.19115450882546L305.0508669251134,193.28920970462062A361.1325933781109,361.1325933781109 0 0,0 319.91879934417574,167.5371953513041Z" style="stroke: rgb(255, 255, 255); fill: rgb(191, 145, 105); fill-rule: evenodd;"></path><text transform="rotate(29.999999999999993)" x="361.1325933781109" dx="6" dy=".35em" style="font-size: 11px; font-family: Arial, Helvetica;">2</text><title>2: 14</title></g><g><path d="M352.2424002714858,223.19115450882546A417,417 0 0,1 350.9232489969502,225.25956874997448L303.9084484099309,195.0805089830052A361.1325933781109,361.1325933781109 0 0,0 305.0508669251134,193.28920970462062Z" style="stroke: rgb(255, 255, 255); fill: rgb(191, 145, 105); fill-rule: evenodd;"></path><text transform="rotate(32.52808988764046)" x="361.1325933781109" dx="6" dy=".35em" style="font-size: 11px; font-family: Arial, Helvetica;">1</text><title>1: 1</title></g><g><path d="M303.908448409931,195.08050898300505A361.1325933781109,361.1325933781109 0 0,1 -2.1245785725623936,361.12634377166256L-1.7347111404095028,294.8584249724931A294.8635277547903,294.8635277547903 0 0,0 248.14020904175888,159.28256859026416Z" style="stroke: rgb(255, 255, 255); fill: rgb(191, 145, 105); fill-rule: evenodd;"></path><text transform="rotate(61.51685393258427)" x="294.8635277547903" dx="6" dy=".35em" style="font-size: 11px; font-family: Arial, Helvetica;">M</text><title>M: none</title></g><g><path d="M350.92324899695035,225.25956874997436A417,417 0 0,1 41.63603208260597,414.91618531025784L36.057861496320676,359.327956920015A361.1325933781109,361.1325933781109 0 0,0 303.908448409931,195.08050898300505Z" style="stroke: rgb(255, 255, 255); fill: rgb(191, 145, 105); fill-rule: evenodd;"></path><text transform="rotate(58.483146067415724)" x="361.1325933781109" dx="6" dy=".35em" style="font-size: 11px; font-family: Arial, Helvetica;">S</text><title>S: 153</title></g><g><path d="M41.63603208260597,414.91618531025784A417,417 0 0,1 4.906419133270311,416.97113455404644L4.2490836110261165,361.10759516862356A361.1325933781109,361.1325933781109 0 0,0 36.057861496320676,359.327956920015Z" style="stroke: rgb(255, 255, 255); fill: rgb(191, 145, 105); fill-rule: evenodd;"></path><text transform="rotate(86.79775280898876)" x="361.1325933781109" dx="6" dy=".35em" style="font-size: 11px; font-family: Arial, Helvetica;">2</text><title>2: 15</title></g><g><path d="M4.906419133270311,416.97113455404644A417,417 0 0,1 -2.453252021566817,416.9927835760694L-2.1245785725623936,361.12634377166256A361.1325933781109,361.1325933781109 0 0,0 4.2490836110261165,361.10759516862356Z" style="stroke: rgb(255, 255, 255); fill: rgb(191, 145, 105); fill-rule: evenodd;"></path><text transform="rotate(89.83146067415727)" x="361.1325933781109" dx="6" dy=".35em" style="font-size: 11px; font-family: Arial, Helvetica;">NSPP</text><title>NSPP: 3</title></g><g><path d="M-2.1245785725623936,361.12634377166256A361.1325933781109,361.1325933781109 0 0,1 -6.3734415838362555,361.0763482179045L-5.203893261944893,294.81760377378805A294.8635277547903,294.8635277547903 0 0,0 -1.7347111404095028,294.8584249724931Z" style="stroke: rgb(255, 255, 255); fill: rgb(191, 145, 105); fill-rule: evenodd;"></path><text transform="rotate(90.67415730337079)" x="294.8635277547903" dx="6" dy=".35em" style="font-size: 11px; font-family: Arial, Helvetica;">NSPP</text><title>NSPP: none</title></g><g><path d="M-2.453252021566817,416.9927835760694A417,417 0 0,1 -4.906419133270075,416.97113455404644L-4.249083611025912,361.10759516862356A361.1325933781109,361.1325933781109 0 0,0 -2.1245785725623936,361.12634377166256Z" style="stroke: rgb(255, 255, 255); fill: rgb(191, 145, 105); fill-rule: evenodd;"></path><text transform="rotate(90.50561797752808)" x="361.1325933781109" dx="6" dy=".35em" style="font-size: 11px; font-family: Arial, Helvetica;">S</text><title>S: 1</title></g><g><path d="M-4.906419133270075,416.97113455404644A417,417 0 0,1 -7.359416428184619,416.9350536832284L-6.373441583836416,361.07634821790447A361.1325933781109,361.1325933781109 0 0,0 -4.249083611025912,361.10759516862356Z" style="stroke: rgb(255, 255, 255); fill: rgb(191, 145, 105); fill-rule: evenodd;"></path><text transform="rotate(90.84269662921348)" x="361.1325933781109" dx="6" dy=".35em" style="font-size: 11px; font-family: Arial, Helvetica;">2</text><title>2: 1</title></g><g><path d="M-5.203893261945025,294.81760377378805A294.8635277547903,294.8635277547903 0 0,1 -262.01285530008556,-135.25444043541205L-185.27106674074014,-95.63933201747183A208.5,208.5 0 0,0 -3.6797082140923094,208.4675268416142Z" style="stroke: rgb(255, 255, 255); fill: rgb(191, 184, 105); fill-rule: evenodd;"></path><text transform="rotate(149.1573033707865)" x="208.5" dx="6" dy=".35em" style="font-size: 11px; font-family: Arial, Helvetica;">JLM</text><title>JLM: none</title></g><g><path d="M-6.373441583836416,361.07634821790447A361.1325933781109,361.1325933781109 0 0,1 -309.5145694705031,186.0577364300907L-252.7175877199829,151.91550565032108A294.8635277547903,294.8635277547903 0 0,0 -5.203893261945025,294.81760377378805Z" style="stroke: rgb(255, 255, 255); fill: rgb(191, 184, 105); fill-rule: evenodd;"></path><text transform="rotate(120.00000000000001)" x="294.8635277547903" dx="6" dy=".35em" style="font-size: 11px; font-family: Arial, Helvetica;">F</text><title>F: none</title></g><g><path d="M-7.359416428184619,416.9350536832284A417,417 0 0,1 -314.12301779477883,274.25486265789533L-272.03851332370976,237.5116781731496A361.1325933781109,361.1325933781109 0 0,0 -6.373441583836416,361.07634821790447Z" style="stroke: rgb(255, 255, 255); fill: rgb(191, 184, 105); fill-rule: evenodd;"></path><text transform="rotate(114.9438202247191)" x="361.1325933781109" dx="6" dy=".35em" style="font-size: 11px; font-family: Arial, Helvetica;">S</text><title>S: 142</title></g><g><path d="M-314.12301779477883,274.25486265789533A417,417 0 0,1 -350.9232489969503,225.2595687499744L-303.908448409931,195.0805089830051A361.1325933781109,361.1325933781109 0 0,0 -272.03851332370976,237.5116781731496Z" style="stroke: rgb(255, 255, 255); fill: rgb(191, 184, 105); fill-rule: evenodd;"></path><text transform="rotate(143.08988764044946)" x="361.1325933781109" dx="6" dy=".35em" style="font-size: 11px; font-family: Arial, Helvetica;">2</text><title>2: 25</title></g><g><path d="M-350.9232489969503,225.2595687499744A417,417 0 0,1 -354.84408304580506,219.03122317921205L-307.30399030026217,189.68660349517663A361.1325933781109,361.1325933781109 0 0,0 -303.908448409931,195.0805089830051Z" style="stroke: rgb(255, 255, 255); fill: rgb(191, 184, 105); fill-rule: evenodd;"></path><text transform="rotate(147.80898876404493)" x="361.1325933781109" dx="6" dy=".35em" style="font-size: 11px; font-family: Arial, Helvetica;">1</text><title>1: 3</title></g><g><path d="M-354.84408304580506,219.03122317921205A417,417 0 0,1 -357.3966400038122,214.8409684254506L-309.5145694705031,186.0577364300907A361.1325933781109,361.1325933781109 0 0,0 -307.30399030026217,189.68660349517663Z" style="stroke: rgb(255, 255, 255); fill: rgb(191, 184, 105); fill-rule: evenodd;"></path><text transform="rotate(148.65168539325842)" x="361.1325933781109" dx="6" dy=".35em" style="font-size: 11px; font-family: Arial, Helvetica;">NSPP</text><title>NSPP: 2</title></g><g><path d="M-309.5145694705031,186.0577364300907A361.1325933781109,361.1325933781109 0 0,1 -324.70790622247245,-158.05545114490053L-265.12289523084945,-129.05173545680051A294.8635277547903,294.8635277547903 0 0,0 -252.7175877199829,151.91550565032108Z" style="stroke: rgb(255, 255, 255); fill: rgb(191, 184, 105); fill-rule: evenodd;"></path><text transform="rotate(177.47191011235955)" x="294.8635277547903" dx="6" dy=".35em" style="font-size: 11px; font-family: Arial, Helvetica;">M</text><title>M: none</title></g><g><path d="M-357.3966400038122,214.8409684254506A417,417 0 0,1 -392.13075803367224,-141.85368731174245L-339.595198062409,-122.84889683246324A361.1325933781109,361.1325933781109 0 0,0 -309.5145694705031,186.0577364300907Z" style="stroke: rgb(255, 255, 255); fill: rgb(191, 184, 105); fill-rule: evenodd;"></path><text transform="rotate(174.43820224719101)" x="361.1325933781109" dx="6" dy=".35em" style="font-size: 11px; font-family: Arial, Helvetica;">S</text><title>S: 151</title></g><g><path d="M-392.13075803367224,-141.85368731174245A417,417 0 0,1 -389.5661829611837,-148.75210618022703L-337.3742108997216,-128.82310281851682A361.1325933781109,361.1325933781109 0 0,0 -339.595198062409,-122.84889683246324Z" style="stroke: rgb(255, 255, 255); fill: rgb(191, 184, 105); fill-rule: evenodd;"></path><text transform="rotate(200.39325842696624)" x="361.1325933781109" dx="6" dy=".35em" style="font-size: 11px; font-family: Arial, Helvetica;">NSPP</text><title>NSPP: 3</title></g><g><path d="M-389.5661829611837,-148.75210618022703A417,417 0 0,1 -376.0076105280658,-180.2977449248171L-325.6321427335901,-156.14242734993846A361.1325933781109,361.1325933781109 0 0,0 -337.3742108997216,-128.82310281851682Z" style="stroke: rgb(255, 255, 255); fill: rgb(191, 184, 105); fill-rule: evenodd;"></path><text transform="rotate(203.25842696629212)" x="361.1325933781109" dx="6" dy=".35em" style="font-size: 11px; font-family: Arial, Helvetica;">2</text><title>2: 14</title></g><g><path d="M-376.0076105280658,-180.2977449248171A417,417 0 0,1 -374.94039413108857,-182.5067145307918L-324.70790622247256,-158.05545114490025A361.1325933781109,361.1325933781109 0 0,0 -325.6321427335901,-156.14242734993846Z" style="stroke: rgb(255, 255, 255); fill: rgb(191, 184, 105); fill-rule: evenodd;"></path><text transform="rotate(205.7865168539325)" x="361.1325933781109" dx="6" dy=".35em" style="font-size: 11px; font-family: Arial, Helvetica;">1</text><title>1: 1</title></g><g><path d="M-324.70790622247245,-158.05545114490053A361.1325933781109,361.1325933781109 0 0,1 -320.8989007674463,-165.65218225621007L-262.01285530008556,-135.25444043541205A294.8635277547903,294.8635277547903 0 0,0 -265.12289523084945,-129.05173545680051Z" style="stroke: rgb(255, 255, 255); fill: rgb(191, 184, 105); fill-rule: evenodd;"></path><text transform="rotate(206.62921348314612)" x="294.8635277547903" dx="6" dy=".35em" style="font-size: 11px; font-family: Arial, Helvetica;">NSPP</text><title>NSPP: none</title></g><g><path d="M-374.94039413108845,-182.50671453079212A417,417 0 0,1 -372.76706737375804,-186.90562720680225L-322.82575003989984,-161.8650212713547A361.1325933781109,361.1325933781109 0 0,0 -324.70790622247245,-158.05545114490053Z" style="stroke: rgb(255, 255, 255); fill: rgb(191, 184, 105); fill-rule: evenodd;"></path><text transform="rotate(206.2921348314607)" x="361.1325933781109" dx="6" dy=".35em" style="font-size: 11px; font-family: Arial, Helvetica;">NSPP</text><title>NSPP: 2</title></g><g><path d="M-372.76706737375804,-186.90562720680225A417,417 0 0,1 -371.66103223473436,-189.095418025429L-321.86789551202713,-163.76143574925936A361.1325933781109,361.1325933781109 0 0,0 -322.82575003989984,-161.8650212713547Z" style="stroke: rgb(255, 255, 255); fill: rgb(191, 184, 105); fill-rule: evenodd;"></path><text transform="rotate(206.79775280898875)" x="361.1325933781109" dx="6" dy=".35em" style="font-size: 11px; font-family: Arial, Helvetica;">2</text><title>2: 1</title></g><g><path d="M-371.66103223473436,-189.095418025429A417,417 0 0,1 -370.5421334814801,-191.278664034944L-320.8989007674462,-165.65218225621035A361.1325933781109,361.1325933781109 0 0,0 -321.86789551202713,-163.76143574925936Z" style="stroke: rgb(255, 255, 255); fill: rgb(191, 184, 105); fill-rule: evenodd;"></path><text transform="rotate(207.13483146067418)" x="361.1325933781109" dx="6" dy=".35em" style="font-size: 11px; font-family: Arial, Helvetica;">S</text><title>S: 1</title></g><g><path d="M-262.01285530008556,-135.25444043541205A294.8635277547903,294.8635277547903 0 0,1 -237.32009827560114,-174.99620268582692L-167.81065080253543,-123.74100160104373A208.5,208.5 0 0,0 -185.27106674074014,-95.63933201747183Z" style="stroke: rgb(255, 255, 255); fill: rgb(158, 191, 105); fill-rule: evenodd;"></path><text transform="rotate(211.85393258426964)" x="208.5" dx="6" dy=".35em" style="font-size: 11px; font-family: Arial, Helvetica;">NSPP</text><title>NSPP: none</title></g><g><path d="M-320.8989007674463,-165.65218225621007A361.1325933781109,361.1325933781109 0 0,1 -305.05086692511344,-193.2892097046204L-249.07298985339386,-157.8199788540448A294.8635277547903,294.8635277547903 0 0,0 -262.01285530008556,-135.25444043541205Z" style="stroke: rgb(255, 255, 255); fill: rgb(158, 191, 105); fill-rule: evenodd;"></path><text transform="rotate(209.83146067415728)" x="294.8635277547903" dx="6" dy=".35em" style="font-size: 11px; font-family: Arial, Helvetica;">NSPP</text><title>NSPP: none</title></g><g><path d="M-370.5421334814803,-191.27866403494366A417,417 0 0,1 -352.2424002714859,-223.19115450882524L-305.05086692511344,-193.2892097046204A361.1325933781109,361.1325933781109 0 0,0 -320.8989007674463,-165.65218225621007Z" style="stroke: rgb(255, 255, 255); fill: rgb(158, 191, 105); fill-rule: evenodd;"></path><text transform="rotate(209.83146067415728)" x="361.1325933781109" dx="6" dy=".35em" style="font-size: 11px; font-family: Arial, Helvetica;">NSPP</text><title>NSPP: 15</title></g><g><path d="M-305.05086692511344,-193.2892097046204A361.1325933781109,361.1325933781109 0 0,1 -299.23398900933046,-202.1775700258659L-244.32352892348305,-165.0772946663954A294.8635277547903,294.8635277547903 0 0,0 -249.07298985339386,-157.8199788540448Z" style="stroke: rgb(255, 255, 255); fill: rgb(158, 191, 105); fill-rule: evenodd;"></path><text transform="rotate(213.20224719101122)" x="294.8635277547903" dx="6" dy=".35em" style="font-size: 11px; font-family: Arial, Helvetica;">F</text><title>F: none</title></g><g><path d="M-352.2424002714859,-223.19115450882524A417,417 0 0,1 -348.24855495823385,-229.37293643649852L-301.59209542505175,-198.64278989464103A361.1325933781109,361.1325933781109 0 0,0 -305.05086692511344,-193.2892097046204Z" style="stroke: rgb(255, 255, 255); fill: rgb(158, 191, 105); fill-rule: evenodd;"></path><text transform="rotate(212.86516853932582)" x="361.1325933781109" dx="6" dy=".35em" style="font-size: 11px; font-family: Arial, Helvetica;">S</text><title>S: 3</title></g><g><path d="M-348.24855495823385,-229.37293643649852A417,417 0 0,1 -345.5256482104449,-233.45454895707616L-299.23398900933046,-202.1775700258659A361.1325933781109,361.1325933781109 0 0,0 -301.59209542505175,-198.64278989464103Z" style="stroke: rgb(255, 255, 255); fill: rgb(158, 191, 105); fill-rule: evenodd;"></path><text transform="rotate(213.70786516853929)" x="361.1325933781109" dx="6" dy=".35em" style="font-size: 11px; font-family: Arial, Helvetica;">2</text><title>2: 2</title></g><g><path d="M-299.23398900933046,-202.1775700258659A361.1325933781109,361.1325933781109 0 0,1 -290.6565732411904,-214.32570175246954L-237.32009827560114,-174.99620268582692A294.8635277547903,294.8635277547903 0 0,0 -244.32352892348305,-165.0772946663954Z" style="stroke: rgb(255, 255, 255); fill: rgb(158, 191, 105); fill-rule: evenodd;"></path><text transform="rotate(215.22471910112358)" x="294.8635277547903" dx="6" dy=".35em" style="font-size: 11px; font-family: Arial, Helvetica;">M</text><title>M: none</title></g><g><path d="M-345.5256482104449,-233.45454895707616A417,417 0 0,1 -344.1462326139716,-235.48327027118108L-298.0393800604082,-203.9344942210797A361.1325933781109,361.1325933781109 0 0,0 -299.23398900933046,-202.1775700258659Z" style="stroke: rgb(255, 255, 255); fill: rgb(158, 191, 105); fill-rule: evenodd;"></path><text transform="rotate(214.2134831460674)" x="361.1325933781109" dx="6" dy=".35em" style="font-size: 11px; font-family: Arial, Helvetica;">2</text><title>2: 1</title></g><g><path d="M-344.1462326139716,-235.48327027118108A417,417 0 0,1 -335.62130160507087,-247.48200320208747L-290.6565732411904,-214.32570175246954A361.1325933781109,361.1325933781109 0 0,0 -298.0393800604082,-203.9344942210797Z" style="stroke: rgb(255, 255, 255); fill: rgb(158, 191, 105); fill-rule: evenodd;"></path><text transform="rotate(215.39325842696624)" x="361.1325933781109" dx="6" dy=".35em" style="font-size: 11px; font-family: Arial, Helvetica;">S</text><title>S: 6</title></g><g><path d="M-237.32009827560114,-174.99620268582692A294.8635277547903,294.8635277547903 0 0,1 -113.23993302943612,-272.2521213278031L-80.07272454622478,-192.51132118331225A208.5,208.5 0 0,0 -167.81065080253543,-123.74100160104373Z" style="stroke: rgb(255, 255, 255); fill: rgb(118, 191, 105); fill-rule: evenodd;"></path><text transform="rotate(231.91011235955057)" x="208.5" dx="6" dy=".35em" style="font-size: 11px; font-family: Arial, Helvetica;">FF</text><title>FF: none</title></g><g><path d="M-290.6565732411904,-214.32570175246954A361.1325933781109,361.1325933781109 0 0,1 -221.10561288249536,-285.53293671983994L-180.53197694248684,-233.13666657400205A294.8635277547903,294.8635277547903 0 0,0 -237.32009827560114,-174.99620268582692Z" style="stroke: rgb(255, 255, 255); fill: rgb(118, 191, 105); fill-rule: evenodd;"></path><text transform="rotate(224.32584269662922)" x="294.8635277547903" dx="6" dy=".35em" style="font-size: 11px; font-family: Arial, Helvetica;">F</text><title>F: none</title></g><g><path d="M-335.62130160507087,-247.48200320208747A417,417 0 0,1 -276.09813313528593,-312.50411337966403L-239.10799723261573,-270.63650097392156A361.1325933781109,361.1325933781109 0 0,0 -290.6565732411904,-214.32570175246954Z" style="stroke: rgb(255, 255, 255); fill: rgb(118, 191, 105); fill-rule: evenodd;"></path><text transform="rotate(222.47191011235958)" x="361.1325933781109" dx="6" dy=".35em" style="font-size: 11px; font-family: Arial, Helvetica;">S</text><title>S: 36</title></g><g><path d="M-276.09813313528593,-312.50411337966403A417,417 0 0,1 -262.998157809608,-323.6061942991087L-227.7630858116293,-280.2511850850311A361.1325933781109,361.1325933781109 0 0,0 -239.10799723261573,-270.63650097392156Z" style="stroke: rgb(255, 255, 255); fill: rgb(118, 191, 105); fill-rule: evenodd;"></path><text transform="rotate(229.71910112359546)" x="361.1325933781109" dx="6" dy=".35em" style="font-size: 11px; font-family: Arial, Helvetica;">2</text><title>2: 7</title></g><g><path d="M-262.998157809608,-323.6061942991087A417,417 0 0,1 -261.08979940060175,-325.14783814282623L-226.1103989499042,-281.5862878172784A361.1325933781109,361.1325933781109 0 0,0 -227.7630858116293,-280.2511850850311Z" style="stroke: rgb(255, 255, 255); fill: rgb(118, 191, 105); fill-rule: evenodd;"></path><text transform="rotate(231.06741573033705)" x="361.1325933781109" dx="6" dy=".35em" style="font-size: 11px; font-family: Arial, Helvetica;">NSPP</text><title>NSPP: 1</title></g><g><path d="M-261.08979940060175,-325.14783814282623A417,417 0 0,1 -255.31077023409176,-329.7050357554079L-221.10561288249536,-285.53293671983994A361.1325933781109,361.1325933781109 0 0,0 -226.1103989499042,-281.5862878172784Z" style="stroke: rgb(255, 255, 255); fill: rgb(118, 191, 105); fill-rule: evenodd;"></path><text transform="rotate(231.74157303370785)" x="361.1325933781109" dx="6" dy=".35em" style="font-size: 11px; font-family: Arial, Helvetica;">1</text><title>1: 3</title></g><g><path d="M-221.10561288249536,-285.53293671983994A361.1325933781109,361.1325933781109 0 0,1 -144.5531253275686,-330.9397890221607L-118.02713259237684,-270.21120622953725A294.8635277547903,294.8635277547903 0 0,0 -180.53197694248684,-233.13666657400205Z" style="stroke: rgb(255, 255, 255); fill: rgb(118, 191, 105); fill-rule: evenodd;"></path><text transform="rotate(239.32584269662917)" x="294.8635277547903" dx="6" dy=".35em" style="font-size: 11px; font-family: Arial, Helvetica;">M</text><title>M: none</title></g><g><path d="M-255.31077023409176,-329.7050357554079A417,417 0 0,1 -171.40023115880842,-380.1459729613179L-148.4369543980532,-329.21606973085363A361.1325933781109,361.1325933781109 0 0,0 -221.10561288249536,-285.53293671983994Z" style="stroke: rgb(255, 255, 255); fill: rgb(118, 191, 105); fill-rule: evenodd;"></path><text transform="rotate(238.9887640449438)" x="361.1325933781109" dx="6" dy=".35em" style="font-size: 11px; font-family: Arial, Helvetica;">S</text><title>S: 40</title></g><g><path d="M-171.40023115880842,-380.1459729613179A417,417 0 0,1 -169.16082882454523,-381.1477587385146L-146.4975750872871,-330.0836416630559A361.1325933781109,361.1325933781109 0 0,0 -148.4369543980532,-329.21606973085363Z" style="stroke: rgb(255, 255, 255); fill: rgb(118, 191, 105); fill-rule: evenodd;"></path><text transform="rotate(245.89887640449436)" x="361.1325933781109" dx="6" dy=".35em" style="font-size: 11px; font-family: Arial, Helvetica;">2</text><title>2: 1</title></g><g><path d="M-169.16082882454523,-381.1477587385146A417,417 0 0,1 -166.91557164014654,-382.13635255500503L-144.55312532756832,-330.9397890221609A361.1325933781109,361.1325933781109 0 0,0 -146.4975750872871,-330.0836416630559Z" style="stroke: rgb(255, 255, 255); fill: rgb(118, 191, 105); fill-rule: evenodd;"></path><text transform="rotate(246.23595505617976)" x="361.1325933781109" dx="6" dy=".35em" style="font-size: 11px; font-family: Arial, Helvetica;">1</text><title>1: 1</title></g><g><path d="M-144.5531253275686,-330.9397890221607A361.1325933781109,361.1325933781109 0 0,1 -138.6900272145292,-333.4393893217074L-113.23993302943636,-272.252121327803A294.8635277547903,294.8635277547903 0 0,0 -118.02713259237684,-270.21120622953725Z" style="stroke: rgb(255, 255, 255); fill: rgb(118, 191, 105); fill-rule: evenodd;"></path><text transform="rotate(246.9101123595505)" x="294.8635277547903" dx="6" dy=".35em" style="font-size: 11px; font-family: Arial, Helvetica;">NSPP</text><title>NSPP: none</title></g><g><path d="M-166.91557164014688,-382.1363525550049A417,417 0 0,1 -162.40780376459296,-384.07382789818087L-140.6492838329755,-332.6176918885571A361.1325933781109,361.1325933781109 0 0,0 -144.5531253275686,-330.9397890221607Z" style="stroke: rgb(255, 255, 255); fill: rgb(118, 191, 105); fill-rule: evenodd;"></path><text transform="rotate(246.74157303370782)" x="361.1325933781109" dx="6" dy=".35em" style="font-size: 11px; font-family: Arial, Helvetica;">NSPP</text><title>NSPP: 2</title></g><g><path d="M-162.40780376459296,-384.07382789818087A417,417 0 0,1 -160.14544909244955,-385.0226423666245L-138.6900272145289,-333.4393893217075A361.1325933781109,361.1325933781109 0 0,0 -140.6492838329755,-332.6176918885571Z" style="stroke: rgb(255, 255, 255); fill: rgb(118, 191, 105); fill-rule: evenodd;"></path><text transform="rotate(247.24719101123594)" x="361.1325933781109" dx="6" dy=".35em" style="font-size: 11px; font-family: Arial, Helvetica;">S</text><title>S: 1</title></g><g><path d="M-113.23993302943612,-272.2521213278031A294.8635277547903,294.8635277547903 0 0,1 -70.43589123552094,-286.3272345164844L-49.80569633155496,-202.46392916499704A208.5,208.5 0 0,0 -80.07272454622478,-192.51132118331225Z" style="stroke: rgb(255, 255, 255); fill: rgb(105, 191, 131); fill-rule: evenodd;"></path><text transform="rotate(251.79775280898875)" x="208.5" dx="6" dy=".35em" style="font-size: 11px; font-family: Arial, Helvetica;">MLP</text><title>MLP: none</title></g><g><path d="M-138.6900272145289,-333.4393893217075A361.1325933781109,361.1325933781109 0 0,1 -118.84471825804617,-341.0171299834741L-97.03630611901359,-278.4393206692925A294.8635277547903,294.8635277547903 0 0,0 -113.23993302943612,-272.2521213278031Z" style="stroke: rgb(255, 255, 255); fill: rgb(105, 191, 131); fill-rule: evenodd;"></path><text transform="rotate(249.1011235955056)" x="294.8635277547903" dx="6" dy=".35em" style="font-size: 11px; font-family: Arial, Helvetica;">F</text><title>F: none</title></g><g><path d="M-160.14544909244955,-385.0226423666245A417,417 0 0,1 -148.75210618022749,-389.56618296118353L-128.8231028185172,-337.3742108997215A361.1325933781109,361.1325933781109 0 0,0 -138.6900272145289,-333.4393893217075Z" style="stroke: rgb(255, 255, 255); fill: rgb(105, 191, 131); fill-rule: evenodd;"></path><text transform="rotate(248.25842696629212)" x="361.1325933781109" dx="6" dy=".35em" style="font-size: 11px; font-family: Arial, Helvetica;">2</text><title>2: 5</title></g><g><path d="M-148.75210618022749,-389.56618296118353A417,417 0 0,1 -139.54428862778974,-392.9585111832598L-120.84889890469387,-340.3120533180144A361.1325933781109,361.1325933781109 0 0,0 -128.8231028185172,-337.3742108997215Z" style="stroke: rgb(255, 255, 255); fill: rgb(105, 191, 131); fill-rule: evenodd;"></path><text transform="rotate(249.7752808988764)" x="361.1325933781109" dx="6" dy=".35em" style="font-size: 11px; font-family: Arial, Helvetica;">S</text><title>S: 4</title></g><g><path d="M-139.54428862778974,-392.9585111832598A417,417 0 0,1 -137.23006015609639,-393.7726635884647L-118.84471825804617,-341.0171299834741A361.1325933781109,361.1325933781109 0 0,0 -120.84889890469387,-340.3120533180144Z" style="stroke: rgb(255, 255, 255); fill: rgb(105, 191, 131); fill-rule: evenodd;"></path><text transform="rotate(250.61797752808982)" x="361.1325933781109" dx="6" dy=".35em" style="font-size: 11px; font-family: Arial, Helvetica;">1</text><title>1: 1</title></g><g><path d="M-118.84471825804617,-341.0171299834741A361.1325933781109,361.1325933781109 0 0,1 -88.32757573542892,-350.16423198936536L-72.11916358961248,-285.9078981824999A294.8635277547903,294.8635277547903 0 0,0 -97.03630611901359,-278.4393206692925Z" style="stroke: rgb(255, 255, 255); fill: rgb(105, 191, 131); fill-rule: evenodd;"></path><text transform="rotate(253.31460674157302)" x="294.8635277547903" dx="6" dy=".35em" style="font-size: 11px; font-family: Arial, Helvetica;">M</text><title>M: none</title></g><g><path d="M-137.23006015609639,-393.7726635884647A417,417 0 0,1 -123.24776062869043,-398.3704174509109L-106.73569166398947,-344.99890162870054A361.1325933781109,361.1325933781109 0 0,0 -118.84471825804617,-341.0171299834741Z" style="stroke: rgb(255, 255, 255); fill: rgb(105, 191, 131); fill-rule: evenodd;"></path><text transform="rotate(251.79775280898872)" x="361.1325933781109" dx="6" dy=".35em" style="font-size: 11px; font-family: Arial, Helvetica;">2</text><title>2: 6</title></g><g><path d="M-123.24776062869043,-398.3704174509109A417,417 0 0,1 -101.99189925543389,-404.3348271992773L-88.32757573542892,-350.16423198936536A361.1325933781109,361.1325933781109 0 0,0 -106.73569166398947,-344.99890162870054Z" style="stroke: rgb(255, 255, 255); fill: rgb(105, 191, 131); fill-rule: evenodd;"></path><text transform="rotate(254.32584269662922)" x="361.1325933781109" dx="6" dy=".35em" style="font-size: 11px; font-family: Arial, Helvetica;">S</text><title>S: 9</title></g><g><path d="M-88.32757573542892,-350.16423198936536A361.1325933781109,361.1325933781109 0 0,1 -86.26599655260004,-350.6778120138011L-70.43589123552094,-286.3272345164844A294.8635277547903,294.8635277547903 0 0,0 -72.11916358961248,-285.9078981824999Z" style="stroke: rgb(255, 255, 255); fill: rgb(105, 191, 131); fill-rule: evenodd;"></path><text transform="rotate(256.0112359550561)" x="294.8635277547903" dx="6" dy=".35em" style="font-size: 11px; font-family: Arial, Helvetica;">NSPP</text><title>NSPP: none</title></g><g><path d="M-101.99189925543389,-404.3348271992773A417,417 0 0,1 -99.61139266310992,-404.9278583299941L-86.26599655260004,-350.6778120138011A361.1325933781109,361.1325933781109 0 0,0 -88.32757573542892,-350.16423198936536Z" style="stroke: rgb(255, 255, 255); fill: rgb(105, 191, 131); fill-rule: evenodd;"></path><text transform="rotate(256.0112359550561)" x="361.1325933781109" dx="6" dy=".35em" style="font-size: 11px; font-family: Arial, Helvetica;">2</text><title>2: 1</title></g><g><path d="M-70.43589123552094,-286.3272345164844A294.8635277547903,294.8635277547903 0 0,1 -63.67900700343095,-287.9053387262157L-45.027857671351676,-203.57981735311705A208.5,208.5 0 0,0 -49.80569633155496,-202.46392916499704Z" style="stroke: rgb(255, 255, 255); fill: rgb(105, 191, 171); fill-rule: evenodd;"></path><text transform="rotate(256.85393258426967)" x="208.5" dx="6" dy=".35em" style="font-size: 11px; font-family: Arial, Helvetica;">NA</text><title>NA: none</title></g><g><path d="M-86.26599655260004,-350.6778120138011A361.1325933781109,361.1325933781109 0 0,1 -80.06363034283298,-352.1456589201778L-65.37168043158447,-287.52572649686635A294.8635277547903,294.8635277547903 0 0,0 -70.43589123552094,-286.3272345164844Z" style="stroke: rgb(255, 255, 255); fill: rgb(105, 191, 171); fill-rule: evenodd;"></path><text transform="rotate(256.6853932584269)" x="294.8635277547903" dx="6" dy=".35em" style="font-size: 11px; font-family: Arial, Helvetica;">F</text><title>F: none</title></g><g><path d="M-99.61139266310992,-404.9278583299941A417,417 0 0,1 -92.44951706146661,-406.6227819430456L-80.06363034283298,-352.1456589201778A361.1325933781109,361.1325933781109 0 0,0 -86.26599655260004,-350.6778120138011Z" style="stroke: rgb(255, 255, 255); fill: rgb(105, 191, 171); fill-rule: evenodd;"></path><text transform="rotate(256.6853932584269)" x="361.1325933781109" dx="6" dy=".35em" style="font-size: 11px; font-family: Arial, Helvetica;">S</text><title>S: 3</title></g><g><path d="M-80.06363034283298,-352.1456589201778A361.1325933781109,361.1325933781109 0 0,1 -77.99053724276114,-352.6105870511909L-63.67900700343095,-287.9053387262157A294.8635277547903,294.8635277547903 0 0,0 -65.37168043158447,-287.52572649686635Z" style="stroke: rgb(255, 255, 255); fill: rgb(105, 191, 171); fill-rule: evenodd;"></path><text transform="rotate(257.3595505617977)" x="294.8635277547903" dx="6" dy=".35em" style="font-size: 11px; font-family: Arial, Helvetica;">M</text><title>M: none</title></g><g><path d="M-92.44951706146661,-406.6227819430456A417,417 0 0,1 -90.05571534270335,-407.1596347062341L-77.99053724276114,-352.6105870511909A361.1325933781109,361.1325933781109 0 0,0 -80.06363034283298,-352.1456589201778Z" style="stroke: rgb(255, 255, 255); fill: rgb(105, 191, 171); fill-rule: evenodd;"></path><text transform="rotate(257.3595505617977)" x="361.1325933781109" dx="6" dy=".35em" style="font-size: 11px; font-family: Arial, Helvetica;">2</text><title>2: 1</title></g><g><path d="M-63.67900700343095,-287.9053387262157A294.8635277547903,294.8635277547903 0 0,1 -46.64075526994116,-291.1514038225635L-32.979994331037595,-205.87513199491755A208.5,208.5 0 0,0 -45.027857671351676,-203.57981735311705Z" style="stroke: rgb(255, 255, 255); fill: rgb(105, 171, 191); fill-rule: evenodd;"></path><text transform="rotate(259.2134831460674)" x="208.5" dx="6" dy=".35em" style="font-size: 11px; font-family: Arial, Helvetica;">B</text><title>B: none</title></g><g><path d="M-77.99053724276114,-352.6105870511909A361.1325933781109,361.1325933781109 0 0,1 -65.49781018816545,-355.1433328397917L-53.47873807689027,-289.9733170029673A294.8635277547903,294.8635277547903 0 0,0 -63.67900700343095,-287.9053387262157Z" style="stroke: rgb(255, 255, 255); fill: rgb(105, 171, 191); fill-rule: evenodd;"></path><text transform="rotate(258.53932584269654)" x="294.8635277547903" dx="6" dy=".35em" style="font-size: 11px; font-family: Arial, Helvetica;">F</text><title>F: none</title></g><g><path d="M-90.05571534270335,-407.1596347062341A417,417 0 0,1 -78.04161353618679,-409.6321600615221L-67.58601987466528,-354.7518568203715A361.1325933781109,361.1325933781109 0 0,0 -77.99053724276114,-352.6105870511909Z" style="stroke: rgb(255, 255, 255); fill: rgb(105, 171, 191); fill-rule: evenodd;"></path><text transform="rotate(258.37078651685385)" x="361.1325933781109" dx="6" dy=".35em" style="font-size: 11px; font-family: Arial, Helvetica;">S</text><title>S: 5</title></g><g><path d="M-78.04161353618679,-409.6321600615221A417,417 0 0,1 -75.63035668693666,-410.0841976319092L-65.49781018816545,-355.1433328397917A361.1325933781109,361.1325933781109 0 0,0 -67.58601987466528,-354.7518568203715Z" style="stroke: rgb(255, 255, 255); fill: rgb(105, 171, 191); fill-rule: evenodd;"></path><text transform="rotate(259.38202247191003)" x="361.1325933781109" dx="6" dy=".35em" style="font-size: 11px; font-family: Arial, Helvetica;">2</text><title>2: 1</title></g><g><path d="M-65.49781018816545,-355.1433328397917A361.1325933781109,361.1325933781109 0 0,1 -57.12302581469066,-356.5861886301462L-46.64075526994116,-291.1514038225635A294.8635277547903,294.8635277547903 0 0,0 -53.47873807689027,-289.9733170029673Z" style="stroke: rgb(255, 255, 255); fill: rgb(105, 171, 191); fill-rule: evenodd;"></path><text transform="rotate(260.2247191011236)" x="294.8635277547903" dx="6" dy=".35em" style="font-size: 11px; font-family: Arial, Helvetica;">M</text><title>M: none</title></g><g><path d="M-75.63035668693666,-410.0841976319092A417,417 0 0,1 -65.95998866207519,-411.7502639898351L-57.12302581469066,-356.5861886301462A361.1325933781109,361.1325933781109 0 0,0 -65.49781018816545,-355.1433328397917Z" style="stroke: rgb(255, 255, 255); fill: rgb(105, 171, 191); fill-rule: evenodd;"></path><text transform="rotate(260.2247191011236)" x="361.1325933781109" dx="6" dy=".35em" style="font-size: 11px; font-family: Arial, Helvetica;">S</text><title>S: 4</title></g><g><path d="M-46.64075526994116,-291.1514038225635A294.8635277547903,294.8635277547903 0 0,1 -24.258646686413744,-293.86394481280576L-17.15345357437173,-207.7931881233643A208.5,208.5 0 0,0 -32.979994331037595,-205.87513199491755Z" style="stroke: rgb(255, 255, 255); fill: rgb(105, 131, 191); fill-rule: evenodd;"></path><text transform="rotate(263.0898876404494)" x="208.5" dx="6" dy=".35em" style="font-size: 11px; font-family: Arial, Helvetica;">NDA</text><title>NDA: none</title></g><g><path d="M-57.12302581469066,-356.5861886301462A361.1325933781109,361.1325933781109 0 0,1 -46.61060784151713,-358.1119953822328L-38.05740193756179,-292.3972198187987A294.8635277547903,294.8635277547903 0 0,0 -46.64075526994116,-291.1514038225635Z" style="stroke: rgb(255, 255, 255); fill: rgb(105, 131, 191); fill-rule: evenodd;"></path><text transform="rotate(261.7415730337078)" x="294.8635277547903" dx="6" dy=".35em" style="font-size: 11px; font-family: Arial, Helvetica;">M</text><title>M: none</title></g><g><path d="M-65.95998866207519,-411.7502639898351A417,417 0 0,1 -56.253095004791646,-413.1883218368858L-48.71660931564907,-357.83158325780363A361.1325933781109,361.1325933781109 0 0,0 -57.12302581469066,-356.5861886301462Z" style="stroke: rgb(255, 255, 255); fill: rgb(105, 131, 191); fill-rule: evenodd;"></path><text transform="rotate(261.57303370786514)" x="361.1325933781109" dx="6" dy=".35em" style="font-size: 11px; font-family: Arial, Helvetica;">S</text><title>S: 4</title></g><g><path d="M-56.253095004791646,-413.1883218368858A417,417 0 0,1 -53.821293968784,-413.5121138679322L-46.61060784151713,-358.1119953822328A361.1325933781109,361.1325933781109 0 0,0 -48.71660931564907,-357.83158325780363Z" style="stroke: rgb(255, 255, 255); fill: rgb(105, 131, 191); fill-rule: evenodd;"></path><text transform="rotate(262.41573033707857)" x="361.1325933781109" dx="6" dy=".35em" style="font-size: 11px; font-family: Arial, Helvetica;">2</text><title>2: 1</title></g><g><path d="M-46.61060784151713,-358.1119953822328A361.1325933781109,361.1325933781109 0 0,1 -29.7106531160858,-359.9083592963848L-24.258646686413744,-293.86394481280576A294.8635277547903,294.8635277547903 0 0,0 -38.05740193756179,-292.3972198187987Z" style="stroke: rgb(255, 255, 255); fill: rgb(105, 131, 191); fill-rule: evenodd;"></path><text transform="rotate(263.93258426966287)" x="294.8635277547903" dx="6" dy=".35em" style="font-size: 11px; font-family: Arial, Helvetica;">F</text><title>F: none</title></g><g><path d="M-53.821293968784,-413.5121138679322A417,417 0 0,1 -46.515050949934846,-414.397574842234L-40.28321578097106,-358.87882708003787A361.1325933781109,361.1325933781109 0 0,0 -46.61060784151713,-358.1119953822328Z" style="stroke: rgb(255, 255, 255); fill: rgb(105, 131, 191); fill-rule: evenodd;"></path><text transform="rotate(263.0898876404494)" x="361.1325933781109" dx="6" dy=".35em" style="font-size: 11px; font-family: Arial, Helvetica;">2</text><title>2: 3</title></g><g><path d="M-46.515050949934846,-414.397574842234A417,417 0 0,1 -34.30690714874383,-415.5863762467286L-29.71065311608612,-359.9083592963848A361.1325933781109,361.1325933781109 0 0,0 -40.28321578097106,-358.87882708003787Z" style="stroke: rgb(255, 255, 255); fill: rgb(105, 131, 191); fill-rule: evenodd;"></path><text transform="rotate(264.43820224719093)" x="361.1325933781109" dx="6" dy=".35em" style="font-size: 11px; font-family: Arial, Helvetica;">S</text><title>S: 5</title></g><g><path d="M-24.258646686413744,-293.86394481280576A294.8635277547903,294.8635277547903 0 0,1 -15.605196382840306,-294.4502977513404L-11.034540184054164,-208.2078022623708A208.5,208.5 0 0,0 -17.15345357437173,-207.7931881233643Z" style="stroke: rgb(255, 255, 255); fill: rgb(118, 105, 191); fill-rule: evenodd;"></path><text transform="rotate(266.12359550561797)" x="208.5" dx="6" dy=".35em" style="font-size: 11px; font-family: Arial, Helvetica;">PP</text><title>PP: none</title></g><g><path d="M-29.7106531160858,-359.9083592963848A361.1325933781109,361.1325933781109 0 0,1 -27.59276267318204,-360.0769215710186L-22.529396381003316,-294.0015753337176A294.8635277547903,294.8635277547903 0 0,0 -24.258646686413744,-293.86394481280576Z" style="stroke: rgb(255, 255, 255); fill: rgb(118, 105, 191); fill-rule: evenodd;"></path><text transform="rotate(265.4494382022471)" x="294.8635277547903" dx="6" dy=".35em" style="font-size: 11px; font-family: Arial, Helvetica;">NSPP</text><title>NSPP: none</title></g><g><path d="M-34.30690714874346,-415.5863762467286A417,417 0 0,1 -31.861377914094216,-415.7810151959987L-27.59276267318204,-360.0769215710186A361.1325933781109,361.1325933781109 0 0,0 -29.7106531160858,-359.9083592963848Z" style="stroke: rgb(255, 255, 255); fill: rgb(118, 105, 191); fill-rule: evenodd;"></path><text transform="rotate(265.4494382022471)" x="361.1325933781109" dx="6" dy=".35em" style="font-size: 11px; font-family: Arial, Helvetica;">NSPP</text><title>NSPP: 1</title></g><g><path d="M-27.59276267318204,-360.0769215710186A361.1325933781109,361.1325933781109 0 0,1 -23.354190071635852,-360.3766526928429L-19.068616343826918,-294.24630476988483A294.8635277547903,294.8635277547903 0 0,0 -22.529396381003316,-294.0015753337176Z" style="stroke: rgb(255, 255, 255); fill: rgb(118, 105, 191); fill-rule: evenodd;"></path><text transform="rotate(265.9550561797753)" x="294.8635277547903" dx="6" dy=".35em" style="font-size: 11px; font-family: Arial, Helvetica;">F</text><title>F: none</title></g><g><path d="M-31.861377914094216,-415.7810151959987A417,417 0 0,1 -26.967095849129286,-416.1271148837382L-23.354190071635852,-360.3766526928429A361.1325933781109,361.1325933781109 0 0,0 -27.59276267318204,-360.0769215710186Z" style="stroke: rgb(255, 255, 255); fill: rgb(118, 105, 191); fill-rule: evenodd;"></path><text transform="rotate(265.9550561797753)" x="361.1325933781109" dx="6" dy=".35em" style="font-size: 11px; font-family: Arial, Helvetica;">S</text><title>S: 2</title></g><g><path d="M-23.354190071635852,-360.3766526928429A361.1325933781109,361.1325933781109 0 0,1 -19.11238423694192,-360.62649205068044L-15.605196382840044,-294.4502977513404A294.8635277547903,294.8635277547903 0 0,0 -19.068616343826918,-294.24630476988483Z" style="stroke: rgb(255, 255, 255); fill: rgb(118, 105, 191); fill-rule: evenodd;"></path><text transform="rotate(266.62921348314603)" x="294.8635277547903" dx="6" dy=".35em" style="font-size: 11px; font-family: Arial, Helvetica;">M</text><title>M: none</title></g><g><path d="M-26.967095849129286,-416.1271148837382A417,417 0 0,1 -24.518512415524466,-416.27856364330097L-21.233654614848348,-360.50781116599586A361.1325933781109,361.1325933781109 0 0,0 -23.354190071635852,-360.3766526928429Z" style="stroke: rgb(255, 255, 255); fill: rgb(118, 105, 191); fill-rule: evenodd;"></path><text transform="rotate(266.46067415730334)" x="361.1325933781109" dx="6" dy=".35em" style="font-size: 11px; font-family: Arial, Helvetica;">S</text><title>S: 1</title></g><g><path d="M-24.518512415524466,-416.27856364330097A417,417 0 0,1 -22.069080368107958,-416.4156045247416L-19.11238423694192,-360.62649205068044A361.1325933781109,361.1325933781109 0 0,0 -21.233654614848348,-360.50781116599586Z" style="stroke: rgb(255, 255, 255); fill: rgb(118, 105, 191); fill-rule: evenodd;"></path><text transform="rotate(266.7977528089887)" x="361.1325933781109" dx="6" dy=".35em" style="font-size: 11px; font-family: Arial, Helvetica;">2</text><title>2: 1</title></g><g><path d="M-15.605196382840306,-294.4502977513404A294.8635277547903,294.8635277547903 0 0,1 -8.672354938877866,-294.73596702780293L-6.132280986137187,-208.40980094493412A208.5,208.5 0 0,0 -11.034540184054164,-208.2078022623708Z" style="stroke: rgb(255, 255, 255); fill: rgb(158, 105, 191); fill-rule: evenodd;"></path><text transform="rotate(267.6404494382022)" x="208.5" dx="6" dy=".35em" style="font-size: 11px; font-family: Arial, Helvetica;">JL</text><title>JL: none</title></g><g><path d="M-19.11238423694224,-360.62649205068044A361.1325933781109,361.1325933781109 0 0,1 -14.867932419062534,-360.8264050559246L-12.139615985629053,-294.6135260366052A294.8635277547903,294.8635277547903 0 0,0 -15.605196382840306,-294.4502977513404Z" style="stroke: rgb(255, 255, 255); fill: rgb(158, 105, 191); fill-rule: evenodd;"></path><text transform="rotate(267.30337078651684)" x="294.8635277547903" dx="6" dy=".35em" style="font-size: 11px; font-family: Arial, Helvetica;">M</text><title>M: none</title></g><g><path d="M-22.069080368108327,-416.4156045247416A417,417 0 0,1 -17.168009568877835,-416.64644417952604L-14.867932419062534,-360.8264050559246A361.1325933781109,361.1325933781109 0 0,0 -19.11238423694224,-360.62649205068044Z" style="stroke: rgb(255, 255, 255); fill: rgb(158, 105, 191); fill-rule: evenodd;"></path><text transform="rotate(267.30337078651684)" x="361.1325933781109" dx="6" dy=".35em" style="font-size: 11px; font-family: Arial, Helvetica;">S</text><title>S: 2</title></g><g><path d="M-14.867932419062534,-360.8264050559246A361.1325933781109,361.1325933781109 0 0,1 -10.621422234277865,-360.9763640319421L-8.672354938877605,-294.73596702780293A294.8635277547903,294.8635277547903 0 0,0 -12.139615985629053,-294.6135260366052Z" style="stroke: rgb(255, 255, 255); fill: rgb(158, 105, 191); fill-rule: evenodd;"></path><text transform="rotate(267.97752808988764)" x="294.8635277547903" dx="6" dy=".35em" style="font-size: 11px; font-family: Arial, Helvetica;">F</text><title>F: none</title></g><g><path d="M-17.168009568877835,-416.64644417952604A417,417 0 0,1 -12.264561972274002,-416.81960188986824L-10.621422234277865,-360.9763640319421A361.1325933781109,361.1325933781109 0 0,0 -14.867932419062534,-360.8264050559246Z" style="stroke: rgb(255, 255, 255); fill: rgb(158, 105, 191); fill-rule: evenodd;"></path><text transform="rotate(267.97752808988764)" x="361.1325933781109" dx="6" dy=".35em" style="font-size: 11px; font-family: Arial, Helvetica;">S</text><title>S: 2</title></g><g><path d="M-8.672354938877866,-294.73596702780293A294.8635277547903,294.8635277547903 0 0,1 -6.938244170702361,-294.78188677024866L-4.906079502631673,-208.44227110620787A208.5,208.5 0 0,0 -6.132280986137187,-208.40980094493412Z" style="stroke: rgb(255, 255, 255); fill: rgb(191, 105, 184); fill-rule: evenodd;"></path><text transform="rotate(268.48314606741565)" x="208.5" dx="6" dy=".35em" style="font-size: 11px; font-family: Arial, Helvetica;">JC</text><title>JC: none</title></g><g><path d="M-10.621422234278185,-360.9763640319421A361.1325933781109,361.1325933781109 0 0,1 -8.497578964530305,-361.0326040009982L-6.938244170702361,-294.78188677024866A294.8635277547903,294.8635277547903 0 0,0 -8.672354938877866,-294.73596702780293Z" style="stroke: rgb(255, 255, 255); fill: rgb(191, 105, 184); fill-rule: evenodd;"></path><text transform="rotate(268.48314606741565)" x="294.8635277547903" dx="6" dy=".35em" style="font-size: 11px; font-family: Arial, Helvetica;">F</text><title>F: none</title></g><g><path d="M-12.264561972274374,-416.81960188986824A417,417 0 0,1 -9.812159005263347,-416.88454221241574L-8.497578964530305,-361.0326040009982A361.1325933781109,361.1325933781109 0 0,0 -10.621422234278185,-360.9763640319421Z" style="stroke: rgb(255, 255, 255); fill: rgb(191, 105, 184); fill-rule: evenodd;"></path><text transform="rotate(268.48314606741565)" x="361.1325933781109" dx="6" dy=".35em" style="font-size: 11px; font-family: Arial, Helvetica;">S</text><title>S: 1</title></g><g><path d="M-6.938244170702361,-294.78188677024866A294.8635277547903,294.8635277547903 0 0,1 -3.160569734259838e-13,-294.8635277547903L-2.2348602915080957e-13,-208.5A208.5,208.5 0 0,0 -4.906079502631673,-208.44227110620787Z" style="stroke: rgb(255, 255, 255); fill: rgb(191, 105, 145); fill-rule: evenodd;"></path><text transform="rotate(269.3258426966292)" x="208.5" dx="6" dy=".35em" style="font-size: 11px; font-family: Arial, Helvetica;">FA</text><title>FA: none</title></g><g><path d="M-8.497578964530305,-361.0326040009982A361.1325933781109,361.1325933781109 0 0,1 -4.249083611026161,-361.10759516862356L-3.4693622404788957,-294.8431168022146A294.8635277547903,294.8635277547903 0 0,0 -6.938244170702361,-294.78188677024866Z" style="stroke: rgb(255, 255, 255); fill: rgb(191, 105, 145); fill-rule: evenodd;"></path><text transform="rotate(268.9887640449438)" x="294.8635277547903" dx="6" dy=".35em" style="font-size: 11px; font-family: Arial, Helvetica;">M</text><title>M: none</title></g><g><path d="M-9.812159005263347,-416.88454221241574A417,417 0 0,1 -4.9064191332703615,-416.97113455404644L-4.249083611026161,-361.10759516862356A361.1325933781109,361.1325933781109 0 0,0 -8.497578964530305,-361.0326040009982Z" style="stroke: rgb(255, 255, 255); fill: rgb(191, 105, 145); fill-rule: evenodd;"></path><text transform="rotate(268.9887640449438)" x="361.1325933781109" dx="6" dy=".35em" style="font-size: 11px; font-family: Arial, Helvetica;">S</text><title>S: 2</title></g><g><path d="M-4.249083611026161,-361.10759516862356A361.1325933781109,361.1325933781109 0 0,1 -6.633898118224292e-14,-361.1325933781109L-5.41655513175301e-14,-294.8635277547903A294.8635277547903,294.8635277547903 0 0,0 -3.4693622404788957,-294.8431168022146Z" style="stroke: rgb(255, 255, 255); fill: rgb(191, 105, 145); fill-rule: evenodd;"></path><text transform="rotate(269.66292134831457)" x="294.8635277547903" dx="6" dy=".35em" style="font-size: 11px; font-family: Arial, Helvetica;">F</text><title>F: none</title></g><g><path d="M-4.9064191332703615,-416.97113455404644A417,417 0 0,1 -7.660165728666694e-14,-417L-6.633898118224292e-14,-361.1325933781109A361.1325933781109,361.1325933781109 0 0,0 -4.249083611026161,-361.10759516862356Z" style="stroke: rgb(255, 255, 255); fill: rgb(191, 105, 145); fill-rule: evenodd;"></path><text transform="rotate(269.66292134831457)" x="361.1325933781109" dx="6" dy=".35em" style="font-size: 11px; font-family: Arial, Helvetica;">S</text><title>S: 2</title></g></g></svg>